<?xml version="1.0" encoding="utf-8"?>
<!-- Generator: Adobe Illustrator 15.0.0, SVG Export Plug-In . SVG Version: 6.00 Build 0)  -->
<!DOCTYPE svg PUBLIC "-//W3C//DTD SVG 1.1//EN" "http://www.w3.org/Graphics/SVG/1.1/DTD/svg11.dtd">
<svg version="1.1" id="Layer_1" xmlns="http://www.w3.org/2000/svg" xmlns:xlink="http://www.w3.org/1999/xlink" x="0px" y="0px"
	 width="282px" height="283.5px" viewBox="0 0 282 283.5" enable-background="new 0 0 282 283.5" xml:space="preserve">
<circle fill="#29ABE2" cx="141.627" cy="142.013" r="137.967"/>
<path fill="#222021" d="M141.627,52.461c-30.651,0-55.497,24.847-55.497,55.497c0,5.154,1.503,12.531,4.114,20.477l51.383,103.236
	c0,0,55.497-93.063,55.497-123.713S172.277,52.461,141.627,52.461z M141.627,193.941c0,0-36.76-72.243-36.034-73.233
	c-1.883-4.909-1.463-8.547-1.463-10.354c0-20.709,16.788-37.497,37.497-37.497s37.497,16.788,37.497,37.497
	S141.627,193.941,141.627,193.941z"/>
<g>
	<path fill="#FFFFFF" d="M133.136,182.288l-27.287-54.523c-0.06-0.137-0.115-0.273-0.181-0.409
		c-2.013-4.147-5.522-5.123-8.514-3.671c-2.992,1.451-4.335,4.781-2.323,8.928c0.04,0.082,0.085,0.157,0.126,0.236l-0.01,0.005
		l19.006,37.771l8.481,17.152c2.056,4.117,5.553,5.344,8.507,3.826C133.897,190.087,135.193,186.405,133.136,182.288z"/>
</g>
<path fill="none" stroke="#B2B2B2" stroke-width="4" stroke-miterlimit="10" d="M116.906,125.954"/>
<path fill="none" stroke="#B2B2B2" stroke-width="4" stroke-miterlimit="10" d="M83.807,142.046"/>
<path fill="none" stroke="#B2B2B2" stroke-width="4" stroke-miterlimit="10" d="M132.653,152.473"/>
<path fill="none" stroke="#B2B2B2" stroke-width="4" stroke-miterlimit="10" d="M99.554,168.564"/>
<g>
	<g>
		<path fill="#222021" d="M123.99,152.443c0.489,0.984,0.083,2.19-0.901,2.681l-16.833,8.36c-0.985,0.49-2.191,0.084-2.681-0.9
			l-10.349-20.838c-0.489-0.985-0.083-2.191,0.901-2.681l16.833-8.359c0.985-0.489,2.191-0.084,2.681,0.901L123.99,152.443z"/>
	</g>
	<g>
		<circle fill="#FFFFFF" cx="99.018" cy="146.188" r="1.671"/>
		<circle fill="#FFFFFF" cx="113.414" cy="138.615" r="1.671"/>
		<circle fill="#FFFFFF" cx="103.73" cy="143.684" r="1.67"/>
		<circle fill="#FFFFFF" cx="108.649" cy="141.214" r="1.671"/>
	</g>
	<g>
		<circle fill="#FFFFFF" cx="101.598" cy="150.698" r="1.671"/>
		<circle fill="#FFFFFF" cx="115.625" cy="143.412" r="1.671"/>
		<circle fill="#FFFFFF" cx="106.152" cy="148.294" r="1.671"/>
		<circle fill="#FFFFFF" cx="110.941" cy="145.948" r="1.671"/>
	</g>
	<g>
		<circle fill="#FFFFFF" cx="103.881" cy="155.355" r="1.67"/>
		<circle fill="#FFFFFF" cx="118.092" cy="147.979" r="1.671"/>
		<circle fill="#FFFFFF" cx="108.465" cy="153.042" r="1.67"/>
		<circle fill="#FFFFFF" cx="113.241" cy="150.604" r="1.67"/>
	</g>
</g>
<circle fill="#222021" cx="128.485" cy="186.77" r="2.5"/>
<circle fill="#222021" cx="99.554" cy="127.96" r="2.5"/>
<g>
	<path fill="#222021" d="M111.791,125.708l36.777-41.364l17.582,22.649l8.623,8.554l-1.487,4.323l-4.013,8.63l-1.688-4.14
		l-2.062-3.665l-0.502,11.033c0,0-6.483-3.753-6.58-2.507c-0.094,1.247-0.649,1.957-0.649,1.957l-1.767-3.143
		c0,0-2.146,1.842-2.971,2.781c-0.822,0.941-1.014,3.434-1.014,3.434s-1.723,2.878-1.666,2.13c0.057-0.747-1.211-3.853-1.211-3.853
		l-3.029,0.271l-0.754,3.323l-3.416-2.889c0,0-0.086-0.518-1.071,2.547c-0.985,3.063-1.481,6.285-1.481,6.285
		s-1.613-1.877-1.805-2.645c-0.193-0.767,0.628-4.967,0.628-4.967l-1.076-2.338l-1.398,1.897c0,0-0.956,2.687-1.53,3.646
		c-0.574,0.959-2.228-3.68-2.228-3.68l-2.107,1.344l-3.585,0.98l-1.445-6.598c0,0-1.406,5.225-1.75,6.452
		c-0.344,1.228-2.167-3.035-2.167-3.035l-0.25-5.083l-2.083-1.817l-0.649,1.889l-1.83-2.405l-2.354-0.25L111.791,125.708z"/>
	<polygon fill="#FFFFFF" points="121.527,123.405 125.662,115.194 136.003,103.722 140.128,102.782 140.062,99.218 147.021,91.497 
		151.107,93.813 144.794,110.884 140.652,115.834 146.199,118.763 138.194,128.435 131.918,121.938 126.705,124.551 	"/>
</g>
<polygon fill="#222021" points="128.287,103.527 119.117,91.497 106.795,107.835 107.402,116.458 110.413,117.625 109.981,120.292 
	110.413,121.958 114.373,119.027 "/>
<polygon fill="#FFFFFF" points="110.413,106.292 119.1,94.493 119.756,99.792 117.735,104.292 117.735,107.835 114.2,113.205 
	110.413,111.624 111.034,108.624 108.034,108.458 "/>
<polygon fill="#222021" points="128.216,193.076 124.866,194.304 122.615,189.799 125.679,189.191 "/>
<polygon fill="#222021" points="138.153,188.619 134.035,190.332 132.544,185.55 135.169,183.206 "/>
</svg>
