<?xml version="1.0" encoding="utf-8"?>
<!-- Generator: Adobe Illustrator 15.0.0, SVG Export Plug-In . SVG Version: 6.00 Build 0)  -->
<!DOCTYPE svg PUBLIC "-//W3C//DTD SVG 1.1//EN" "http://www.w3.org/Graphics/SVG/1.1/DTD/svg11.dtd">
<svg version="1.1" id="Layer_1" xmlns="http://www.w3.org/2000/svg" xmlns:xlink="http://www.w3.org/1999/xlink" x="0px" y="0px"
	 width="1392px" height="1240px" viewBox="0 0 1392 1240" enable-background="new 0 0 1392 1240" xml:space="preserve">
<rect fill="#29ABE2" width="1392" height="1240"/>
<g>
	<g>
		<path fill="#222021" d="M696.579,497.112c-30.651,0-55.497,24.847-55.497,55.497c0,5.152,1.503,12.529,4.114,20.477
			l51.383,103.236c0,0,55.497-93.063,55.497-123.713C752.076,521.959,727.229,497.112,696.579,497.112z M696.579,638.593
			c0,0-36.76-72.243-36.034-73.231c-1.883-4.909-1.463-8.547-1.463-10.354c0-20.709,16.788-37.497,37.497-37.497
			s37.497,16.788,37.497,37.497S696.579,638.593,696.579,638.593z"/>
		<g>
			<path fill="#FFFFFF" d="M688.088,626.939l-27.287-54.523c-0.06-0.137-0.115-0.273-0.181-0.409
				c-2.013-4.146-5.522-5.123-8.515-3.671c-2.991,1.451-4.334,4.781-2.322,8.928c0.04,0.082,0.085,0.157,0.126,0.236l-0.011,0.005
				l19.007,37.771l8.479,17.15c2.057,4.117,5.555,5.346,8.507,3.826C688.85,634.738,690.145,631.057,688.088,626.939z"/>
		</g>
		<path fill="none" stroke="#B2B2B2" stroke-width="4" stroke-miterlimit="10" d="M671.857,570.604"/>
		<path fill="none" stroke="#B2B2B2" stroke-width="4" stroke-miterlimit="10" d="M638.759,586.697"/>
		<path fill="none" stroke="#B2B2B2" stroke-width="4" stroke-miterlimit="10" d="M687.605,597.123"/>
		<path fill="none" stroke="#B2B2B2" stroke-width="4" stroke-miterlimit="10" d="M654.506,613.216"/>
		<g>
			<g>
				<path fill="#222021" d="M678.942,597.095c0.487,0.985,0.084,2.191-0.901,2.683l-16.833,8.359
					c-0.985,0.489-2.19,0.084-2.681-0.899l-10.351-20.838c-0.487-0.985-0.083-2.191,0.902-2.683l16.832-8.357
					c0.983-0.489,2.19-0.084,2.681,0.899L678.942,597.095z"/>
			</g>
			<g>
				<circle fill="#FFFFFF" cx="653.97" cy="590.839" r="1.671"/>
				<circle fill="#FFFFFF" cx="668.366" cy="583.267" r="1.671"/>
				<circle fill="#FFFFFF" cx="658.682" cy="588.335" r="1.67"/>
				<circle fill="#FFFFFF" cx="663.602" cy="585.865" r="1.671"/>
			</g>
			<g>
				<circle fill="#FFFFFF" cx="656.551" cy="595.349" r="1.671"/>
				<circle fill="#FFFFFF" cx="670.577" cy="588.063" r="1.671"/>
				<circle fill="#FFFFFF" cx="661.104" cy="592.945" r="1.671"/>
				<circle fill="#FFFFFF" cx="665.893" cy="590.6" r="1.671"/>
			</g>
			<g>
				<circle fill="#FFFFFF" cx="658.833" cy="600.008" r="1.67"/>
				<circle fill="#FFFFFF" cx="673.044" cy="592.63" r="1.671"/>
				<circle fill="#FFFFFF" cx="663.417" cy="597.693" r="1.67"/>
				<circle fill="#FFFFFF" cx="668.193" cy="595.255" r="1.67"/>
			</g>
		</g>
		<circle fill="#222021" cx="683.438" cy="631.42" r="2.5"/>
		<circle fill="#222021" cx="654.506" cy="572.611" r="2.5"/>
		<g>
			<path fill="#222021" d="M666.743,570.359l36.778-41.364l17.582,22.647l8.62,8.556l-1.485,4.322l-4.013,8.631l-1.688-4.142
				l-2.062-3.665l-0.503,11.033c0,0-6.482-3.753-6.578-2.507c-0.096,1.247-0.65,1.957-0.65,1.957l-1.766-3.145
				c0,0-2.146,1.844-2.973,2.781c-0.822,0.941-1.014,3.436-1.014,3.436s-1.725,2.878-1.666,2.13
				c0.057-0.747-1.211-3.854-1.211-3.854l-3.029,0.271l-0.754,3.323l-3.416-2.891c0,0-0.086-0.518-1.071,2.547
				c-0.983,3.064-1.479,6.285-1.479,6.285s-1.613-1.877-1.807-2.645c-0.192-0.769,0.629-4.969,0.629-4.969l-1.075-2.338
				l-1.398,1.898c0,0-0.956,2.686-1.53,3.646c-0.574,0.959-2.228-3.68-2.228-3.68l-2.107,1.344l-3.585,0.981l-1.445-6.599
				c0,0-1.404,5.226-1.75,6.451c-0.344,1.229-2.166-3.034-2.166-3.034l-0.25-5.083l-2.084-1.816l-0.647,1.889l-1.83-2.405
				l-2.354-0.25L666.743,570.359z"/>
			<polygon fill="#FFFFFF" points="676.479,568.057 680.614,559.846 690.956,548.373 695.081,547.434 695.014,543.869 
				701.974,536.148 706.061,538.465 699.746,555.535 695.604,560.485 701.151,563.414 693.146,573.086 686.87,566.59 
				681.657,569.202 			"/>
		</g>
		<polygon fill="#222021" points="683.239,548.179 674.069,536.148 661.747,552.486 662.354,561.109 665.365,562.276 
			664.934,564.943 665.365,566.609 669.325,563.679 		"/>
		<polygon fill="#FFFFFF" points="665.365,550.943 674.052,539.146 674.708,544.443 672.688,548.943 672.688,552.486 
			669.152,557.856 665.365,556.275 665.986,553.275 662.986,553.109 		"/>
		<polygon fill="#222021" points="683.168,637.728 679.818,638.955 677.567,634.45 680.631,633.844 		"/>
		<polygon fill="#222021" points="693.105,633.271 688.987,634.983 687.497,630.201 690.122,627.857 		"/>
	</g>
	<g enable-background="new    ">
		<path fill="#FFFFFF" d="M591.529,718.869c0.475,0,0.712,0.292,0.712,0.876c0,0.607-0.675,1.479-2.026,2.609
			c-1.35,1.132-2.911,2.031-4.681,2.7c-1.771,0.669-3.393,1.004-4.864,1.004c-2.153,0-4.115-0.712-5.886-2.135
			c-1.771-1.424-2.655-3.485-2.655-6.187c0-4.929,2.12-9.726,6.36-14.392c4.239-4.665,8.325-6.998,12.254-6.998
			c1.472,0,2.648,0.453,3.53,1.359c0.883,0.906,1.323,1.962,1.323,3.166c0,1.119-0.063,2.002-0.19,2.646
			c-0.128,0.646-0.515,1.189-1.159,1.634c-0.646,0.443-1.162,0.667-1.551,0.667c-0.28,0-0.523-0.122-0.73-0.365
			s-0.31-0.572-0.31-0.985c0-0.279,0.103-0.863,0.31-1.752c0.207-0.876,0.312-1.526,0.312-1.953c0-1.24-0.543-1.86-1.625-1.86
			c-1.68,0-3.756,0.964-6.232,2.893s-4.578,4.374-6.306,7.336c-1.729,2.963-2.591,5.691-2.591,8.187c0,1.667,0.495,3.051,1.486,4.15
			c0.992,1.103,2.406,1.652,4.243,1.652c1.059,0,2.345-0.265,3.86-0.794c1.515-0.529,2.903-1.238,4.17-2.127
			C590.549,719.313,591.298,718.869,591.529,718.869z"/>
		<path fill="#FFFFFF" d="M604.979,693.484c0.877,0,1.314,0.56,1.314,1.679c0,0.998-0.529,3.37-1.587,7.117
			c-0.669,2.359-1.187,4.964-1.551,7.811c-0.365,2.849-0.547,5.08-0.547,6.698c0,2.008,0.127,4.003,0.383,5.985
			c0.049,0.378,0.073,0.65,0.073,0.82c0,0.609-0.207,1.132-0.621,1.57c-0.414,0.438-0.853,0.656-1.314,0.656
			c-0.645,0-1.092-0.401-1.341-1.204c-0.25-0.803-0.374-2.1-0.374-3.888c0-4.075,0.49-9.125,1.469-15.146
			c0.979-6.021,1.758-9.545,2.336-10.567C603.796,693.995,604.383,693.484,604.979,693.484z"/>
		<path fill="#FFFFFF" d="M612.771,720.329c0,0.925,0.127,1.965,0.384,3.121c0.048,0.219,0.073,0.4,0.073,0.548
			c0,0.219-0.201,0.501-0.603,0.849c-0.402,0.348-0.828,0.521-1.278,0.521c-1.18,0-1.77-1.083-1.77-3.248
			c0-2.238,0.462-5.779,1.387-10.622c0.316-1.69,0.475-2.73,0.475-3.12c0-0.767,0.14-1.421,0.42-1.962
			c0.279-0.541,0.675-0.813,1.186-0.813c0.621,0,1.11,0.149,1.469,0.447c0.359,0.299,0.539,0.63,0.539,0.995
			c0,0.364-0.085,0.846-0.256,1.441c-0.912,3.212-1.479,5.512-1.697,6.897C612.881,716.771,612.771,718.42,612.771,720.329z
			 M615.163,699.944c-0.255,0-0.45-0.273-0.584-0.821c-0.049-0.17-0.116-0.358-0.201-0.565c-0.329-0.791-0.493-1.479-0.493-2.063
			c0-0.486,0.289-0.982,0.867-1.487s1.22-0.758,1.925-0.758c0.354,0,0.748,0.138,1.187,0.411c0.438,0.272,0.656,0.538,0.656,0.794
			c0,0.401-0.148,1.083-0.446,2.044s-0.772,1.609-1.423,1.943C615.999,699.777,615.503,699.944,615.163,699.944z"/>
		<path fill="#FFFFFF" d="M633.869,709.945c-1.132,0.023-3.553,3.376-7.264,10.056c-1.254,2.251-1.983,3.477-2.19,3.678
			c-0.207,0.2-0.587,0.38-1.141,0.538c-0.555,0.158-1.014,0.237-1.378,0.237c-0.815,0-1.224-1.588-1.224-4.764
			c0-1.788,0.383-5.024,1.15-9.709c0.315-1.897,0.474-3.255,0.474-4.069c0-0.803,0.359-1.204,1.077-1.204
			c1.351,0,2.025,0.973,2.025,2.92c0,0.912-0.226,2.7-0.675,5.365c-0.523,3.042-0.791,4.891-0.804,5.548
			c0.754-0.729,1.861-2.33,3.321-4.8c2.068-3.382,3.592-5.526,4.572-6.434c0.979-0.905,1.992-1.359,3.039-1.359
			c0.791,0,1.42,0.529,1.889,1.588s0.751,3.583,0.849,7.574c0.024,0.997,0.116,1.738,0.274,2.227
			c0.158,0.486,0.273,0.729,0.347,0.729c0.572,0,1.813-1.946,3.724-5.841c1.021-2.056,2.017-3.618,2.982-4.689
			c0.967-1.07,2.041-1.605,3.221-1.605c0.986,0,1.703,0.509,2.154,1.523c0.45,1.016,0.772,2.521,0.967,4.517
			c0.184,2.021,0.467,3.869,0.85,5.548c0.383,1.681,1.086,2.757,2.107,3.23c0.694,0.329,1.041,0.712,1.041,1.149
			c0,0.427-0.292,0.863-0.876,1.313s-1.12,0.675-1.605,0.675c-0.975,0-1.843-0.596-2.61-1.788c-0.767-1.191-1.345-3.771-1.734-7.737
			c-0.17-1.595-0.334-2.726-0.492-3.396c-0.158-0.669-0.408-1.003-0.748-1.003c-0.512,0-1.117,0.486-1.816,1.46
			c-0.7,0.975-1.828,2.95-3.385,5.932c-1.217,2.323-2.139,3.871-2.766,4.645c-0.625,0.773-1.231,1.159-1.815,1.159
			c-0.523,0-0.992-0.21-1.405-0.63s-0.675-0.924-0.785-1.516c-0.108-0.59-0.225-2.041-0.347-4.353
			C634.689,712.816,634.355,710.578,633.869,709.945z"/>
		<path fill="#FFFFFF" d="M661.846,713.997c1.558-2.835,3.418-5.132,5.584-6.89c2.165-1.759,4.118-2.638,5.858-2.638
			c0.961,0,1.776,0.444,2.446,1.332c0.669,0.889,1.003,1.971,1.003,3.248c0,3.784-1.428,7.334-4.279,10.649
			c-2.854,3.314-5.868,4.973-9.043,4.973c-0.864,0-1.658-0.234-2.382-0.702c-0.725-0.469-1.128-1.056-1.213-1.762
			c-0.05-0.571-0.213-0.997-0.493-1.277c-0.523-0.522-0.785-1.083-0.785-1.679c0-1.107,0.304-3.474,0.912-7.1l1.88-10.913
			c0.645-3.662,1.116-5.926,1.415-6.789c0.298-0.863,0.629-1.441,0.995-1.733c0.365-0.292,0.814-0.438,1.351-0.438
			c0.852,0,1.277,0.735,1.277,2.208c0,1.398-0.47,3.357-1.405,5.877C664.066,702.785,663.025,707.329,661.846,713.997z
			 M661.408,720.074c0.632,1.18,1.398,1.77,2.299,1.77c1.387,0,2.854-0.573,4.398-1.725c1.545-1.149,2.88-2.769,4.005-4.854
			s1.688-3.847,1.688-5.282c0-0.646-0.116-1.198-0.347-1.66c-0.231-0.463-0.523-0.693-0.876-0.693c-1.691,0-3.757,1.384-6.196,4.151
			C663.941,714.547,662.284,717.313,661.408,720.074z"/>
		<path fill="#FFFFFF" d="M698.236,704.014c0-1.616-0.42-2.605-1.26-2.965c-0.84-0.358-1.887-0.539-3.14-0.539
			c-2.579,0-4.918,0.509-7.017,1.524c-2.1,1.016-3.148,2.234-3.148,3.659c0,1.021,0.465,1.913,1.396,2.673
			c0.931,0.761,2.959,1.598,6.086,2.51c3.029,0.876,5.186,1.779,6.47,2.71c1.283,0.931,1.925,2.054,1.925,3.367
			c0,1.326-0.894,2.759-2.683,4.298s-3.945,2.71-6.47,3.513c-2.525,0.805-4.67,1.205-6.434,1.205c-1.472,0-2.588-0.174-3.349-0.521
			c-0.761-0.348-1.142-0.781-1.142-1.306c0-0.364,0.112-0.813,0.338-1.341c0.225-0.529,0.452-0.794,0.685-0.794
			c0.243,0,0.493,0.042,0.748,0.127c1.302,0.487,2.592,0.73,3.869,0.73c2.299,0,4.739-0.672,7.317-2.018
			c2.58-1.345,3.869-2.601,3.869-3.769c0-0.499-0.392-0.978-1.177-1.434c-0.785-0.455-2.771-1.188-5.958-2.198
			c-3.954-1.253-6.384-2.474-7.291-3.659c-0.907-1.188-1.36-2.438-1.36-3.75c0-2.53,1.454-4.572,4.362-6.123
			s5.949-2.327,9.125-2.327c2.104,0,3.723,0.356,4.854,1.068c1.133,0.711,1.697,1.499,1.697,2.362c0,0.413-0.128,1.017-0.384,1.808
			S699.27,704.014,698.236,704.014z"/>
		<path fill="#FFFFFF" d="M707.652,722.264c-0.597,2.19-1.156,5.263-1.68,9.218l-0.511,3.448c-0.086,0.486-0.311,0.97-0.676,1.45
			s-0.699,0.721-1.004,0.721c-0.377,0-0.807-0.19-1.286-0.573c-0.481-0.385-0.721-0.69-0.721-0.923c0-0.669,0.15-1.594,0.455-2.773
			c2.228-8.99,3.341-16.887,3.341-23.688l-0.02-1.532c-0.023-1.314,0.207-2.271,0.694-2.865c0.486-0.596,1.045-0.896,1.678-0.896
			c0.293,0,0.572,0.229,0.84,0.686c0.269,0.456,0.402,1.104,0.402,1.942c0,1.182-0.123,2.61-0.365,4.289
			c-0.316,2.117-0.48,3.334-0.493,3.649c1.813-3.163,3.735-5.633,5.768-7.409c2.032-1.775,3.918-2.664,5.657-2.664
			c1.229,0,2.267,0.459,3.111,1.378c0.846,0.919,1.269,2.061,1.269,3.422c0,3.967-1.521,7.567-4.563,10.805
			c-3.041,3.235-6.004,4.854-8.887,4.854c-0.719,0-1.287-0.183-1.707-0.548S708.104,723.226,707.652,722.264z M718.986,707.573
			c-1.717,0-3.84,1.604-6.369,4.816c-2.531,3.212-3.797,5.712-3.797,7.501c0,0.438,0.25,0.864,0.748,1.277
			c0.499,0.414,1.132,0.62,1.897,0.62c1.74,0,3.741-1.286,6.004-3.859c2.265-2.572,3.396-5.101,3.396-7.583
			c0-0.888-0.18-1.571-0.538-2.053S719.521,707.573,718.986,707.573z"/>
		<path fill="#FFFFFF" d="M733.622,725.293c-1.667,0-3.042-0.633-4.124-1.896c-1.084-1.267-1.625-2.829-1.625-4.69
			c0-3.139,1.056-6.232,3.166-9.28c2.111-3.048,4.639-4.57,7.584-4.57c1.945,0,3.523,0.747,4.734,2.244
			c1.211,1.496,1.815,3.278,1.815,5.348c0,3.164-1.25,6.096-3.75,8.797C738.924,723.942,736.322,725.293,733.622,725.293z
			 M731.085,718.229c0,1.229,0.259,2.233,0.776,3.013c0.517,0.778,1.201,1.168,2.053,1.168c1.813,0,3.631-0.995,5.457-2.984
			c1.824-1.989,2.736-4.2,2.736-6.634c0-1.496-0.351-2.71-1.05-3.641c-0.698-0.932-1.64-1.396-2.818-1.396
			c-1.959,0-3.643,1.202-5.046,3.604C731.787,713.763,731.085,716.053,731.085,718.229z"/>
		<path fill="#FFFFFF" d="M756.854,705.967c1.255-0.098,2.435-0.213,3.541-0.347c1.096-0.121,2.009-0.184,2.737-0.184
			c0.925,0,1.509,0.086,1.752,0.257c0.243,0.17,0.365,0.468,0.365,0.894c0,0.986-0.688,1.521-2.063,1.606
			c-1.765,0.108-3.388,0.262-4.871,0.456c-1.484,0.194-2.285,0.355-2.4,0.482c-0.115,0.128-0.483,1.576-1.104,4.344
			c-0.621,2.769-0.933,4.565-0.933,5.394c0,1.339,0.177,2.229,0.529,2.674c0.354,0.444,0.883,0.666,1.588,0.666
			c1.047,0,2.5-0.784,4.36-2.354c0.72-0.645,1.271-0.967,1.662-0.967c0.521,0,0.783,0.28,0.783,0.84
			c0,0.877-0.842,2.011-2.526,3.403c-1.687,1.394-3.41,2.09-5.175,2.09c-2.943,0-4.416-1.733-4.416-5.2
			c0-1.254,0.305-3.194,0.912-5.822c0.597-2.615,0.896-4.186,0.896-4.708c0-0.184-0.146-0.274-0.438-0.274l-1.897,0.165
			c-1.559,0-2.336-0.621-2.336-1.862c0-0.704,0.358-1.058,1.075-1.058h3.761c0.256,0,0.479-0.116,0.676-0.347
			c0.194-0.231,0.479-1.007,0.856-2.327c0.378-1.32,0.713-2.625,1.005-3.915c0.292-1.277,0.862-1.916,1.715-1.916
			c0.522,0,0.932,0.183,1.223,0.548c0.293,0.364,0.438,0.705,0.438,1.021c0,0.171-0.219,1.04-0.657,2.609L756.854,705.967z"/>
		<path fill="#FFFFFF" d="M774.374,705.967c1.253-0.098,2.433-0.213,3.54-0.347c1.096-0.121,2.008-0.184,2.738-0.184
			c0.924,0,1.508,0.086,1.752,0.257c0.242,0.17,0.365,0.468,0.365,0.894c0,0.986-0.688,1.521-2.063,1.606
			c-1.765,0.108-3.389,0.262-4.873,0.456s-2.285,0.355-2.4,0.482c-0.114,0.128-0.481,1.576-1.104,4.344
			c-0.622,2.769-0.931,4.565-0.931,5.394c0,1.339,0.177,2.229,0.527,2.674c0.354,0.444,0.883,0.666,1.588,0.666
			c1.047,0,2.501-0.784,4.362-2.354c0.718-0.645,1.271-0.967,1.661-0.967c0.521,0,0.784,0.28,0.784,0.84
			c0,0.877-0.843,2.011-2.527,3.403c-1.686,1.394-3.41,2.09-5.174,2.09c-2.944,0-4.417-1.733-4.417-5.2
			c0-1.254,0.305-3.194,0.913-5.822c0.596-2.615,0.894-4.186,0.894-4.708c0-0.184-0.146-0.274-0.438-0.274l-1.898,0.165
			c-1.557,0-2.336-0.621-2.336-1.862c0-0.704,0.359-1.058,1.077-1.058h3.759c0.256,0,0.48-0.116,0.676-0.347
			c0.195-0.231,0.48-1.007,0.857-2.327s0.713-2.625,1.004-3.915c0.293-1.277,0.864-1.916,1.716-1.916
			c0.522,0,0.932,0.183,1.224,0.548c0.292,0.364,0.438,0.705,0.438,1.021c0,0.171-0.219,1.04-0.656,2.609L774.374,705.967z"/>
		<path fill="#FFFFFF" d="M800.088,718.194c0,1.24-1.098,2.736-3.295,4.488c-2.195,1.752-4.461,2.628-6.797,2.628
			c-1.959,0-3.471-0.577-4.535-1.732c-1.064-1.156-1.598-2.769-1.598-4.837c0-3.479,1.174-6.788,3.521-9.928
			c2.35-3.14,4.915-4.708,7.702-4.708c0.912,0,1.656,0.298,2.234,0.895c0.578,0.596,0.866,1.313,0.866,2.153
			c0,1.873-0.918,3.668-2.756,5.384c-1.837,1.715-4.295,3.4-7.373,5.055c-0.633,0.329-0.948,0.755-0.948,1.277
			c0,1.011,0.293,1.819,0.877,2.428c0.584,0.609,1.446,0.912,2.592,0.912c2.615,0,5.285-1.447,8.012-4.344
			c0.4-0.401,0.705-0.603,0.912-0.603C799.893,717.264,800.088,717.573,800.088,718.194z M787.404,715.348
			c5.158-3.065,7.737-5.529,7.737-7.392c0-0.73-0.329-1.095-0.985-1.095c-1.119,0-2.381,0.82-3.787,2.464
			C788.965,710.967,787.977,712.975,787.404,715.348z"/>
		<path fill="#FFFFFF" d="M807.588,717.136c0.122-0.219,0.268-0.522,0.438-0.912c0.827-1.897,1.588-3.386,2.28-4.463
			c0.693-1.076,1.456-2.106,2.29-3.093s1.595-1.734,2.281-2.245s1.312-0.866,1.871-1.066c0.559-0.201,1.101-0.302,1.624-0.302
			c1.059,0,1.923,0.319,2.591,0.958c0.67,0.64,1.004,1.384,1.004,2.235c0,0.377-0.118,0.718-0.354,1.021
			c-0.237,0.305-0.601,0.456-1.086,0.456c-0.512,0-0.979-0.226-1.405-0.676c-0.438-0.45-0.894-0.675-1.368-0.675
			c-1.266,0-3.018,1.533-5.256,4.599c-2.239,3.066-3.602,6.442-4.088,10.129c-0.123,0.949-0.354,1.575-0.694,1.881
			c-0.341,0.304-0.821,0.455-1.44,0.455c-0.598,0-1.028-0.443-1.297-1.332c-0.268-0.889-0.4-2.385-0.4-4.489
			c0-0.571,0.03-1.83,0.091-3.777c0.073-2.3,0.219-4.154,0.438-5.565c0.035-0.23,0.097-0.772,0.183-1.624
			c0.085-0.938,0.19-1.589,0.319-1.952c0.128-0.365,0.39-0.706,0.783-1.022c0.396-0.315,0.824-0.475,1.287-0.475
			c0.449,0,0.787,0.144,1.014,0.429c0.226,0.286,0.337,0.594,0.337,0.922c0,0.476-0.121,1.145-0.364,2.008
			c-0.28,0.961-0.444,1.624-0.493,1.989c-0.036,0.413-0.104,0.847-0.2,1.295c-0.122,0.523-0.242,1.898-0.365,4.125l-0.019,0.675
			L807.588,717.136L807.588,717.136z"/>
	</g>
</g>
</svg>
